<?xml version="1.0" encoding="utf-8"?>
<!-- Generator: Adobe Illustrator 20.1.0, SVG Export Plug-In . SVG Version: 6.00 Build 0)  -->
<svg version="1.1" xmlns="http://www.w3.org/2000/svg" xmlns:xlink="http://www.w3.org/1999/xlink" x="0px" y="0px"
	 viewBox="0 0 1733 438.2" style="enable-background:new 0 0 1733 438.2;" xml:space="preserve">
<style type="text/css">
	.st0{fill-rule:evenodd;clip-rule:evenodd;fill:#FFFFFF;}
	.st1{fill:#FFFFFF;}
	.st2{fill:#FF6A13;}
</style>
<g id="Layer_1">
</g>
<g id="Layer_2">
	<g>
		<g>
			<g>
				<path class="st0" d="M106.9,28.9c0,1.1,0,2.1,0,3.2c0.2,0,0.4,0.1,0.6,0.1c0.3-0.4,0.6-0.8,0.9-1.2c1.1-1.4,3.2-1.4,4.4,0
					c0.5,0.5,1.1,1.1,1.8,1.3c2.5,0.5,4.9,1.7,7.7,0.9c2-0.6,2.9,0.6,2.7,2.8c-0.1,0.9,0,1.8,0,3c2.5-0.3,4.1,1,5.9,2.4
					c1.3,1,3.4,0.8,5.2,1.2c3,0.6,6,1.1,9.3,1.8c-0.9-1.9-1.2-3.4,0.5-4.3c0.6-0.3,1.8-0.1,2.2,0.4c1.2,1.3,0.4,2.6-0.6,3.7
					c3.5,1.6-0.1,4,0.9,6.2c2.6,0.4,5.4,0.9,8.3,1.2c1.3,0.2,2,0.7,1.6,2.1c-0.3,1.3-1,1.7-2.3,1.2c-2.3-0.8-4.7-1.6-7-2.3
					c-0.3-0.1-0.7-0.3-1-0.2c-3.4,1.9-6.6-0.2-9.9-0.5c-1.1-0.1-2.1-0.4-3.1-0.6c-1.1-0.2-2-0.3-2.8,0.9c-0.3,0.5-1.2,0.8-1.9,0.9
					c-1.6,0.3-3.3,0.6-5,0.5c-2-0.1-2.6,0.9-2.7,2.6c0,2.4,0,4.8,0,7.5c0.1-0.1,0,0-0.2,0.1c-5.3,2-5.4,1.9-6.1-3.5
					c0-0.3-0.1-0.5-0.2-0.8c-4.4,2.3-7.3,5.6-7.4,10.7c-0.1,1.9,0.2,3.9,0.1,5.8c-0.1,2.3,0.3,4.2,1.9,6c1.4,1.6,2,3.8,3.3,5.5
					c2.5,3.3,5.3,6.4,8,9.5c3.4,3.8,6.8,7.5,7.4,12.8c0.2,1.3,0.4,2.7,0.2,4c-1,5.5,0.7,10.8,0.8,16.2c0,1.6-0.5,2.6-1.7,3.8
					c-1.8,1.8-2.1,4.3-1.6,6.7c0.6,3.6,2.3,6.7,5.7,8.6c0.8,0.5,1.5,1.2,2.3,1.6c3.1,1.4,3.2,4.5,4.2,7.1c0.6,1.6-0.5,2.9-1.9,3.2
					c-2,0.4-4.3,0.9-6.2,0.4c-3.3-0.8-6-2.5-7.4-6c-0.4-1.1-2.1-2.2-3.4-2.5c-3-0.7-5-3.3-4.7-6.3c0.3-2.7,0.4-5.4,0.5-8.1
					c0-0.5-0.2-1.2-0.6-1.4c-2-1.4-1.6-3.3-1.4-5.2c0.1-0.5,0.2-1.3-0.1-1.6c-2.1-2.5-1.7-5.1-0.4-7.7c0.8-1.7,0.5-2.7-1.1-3.5
					c-2.4-1.1-3.2-3.1-2.6-5.6c0.2-1-0.1-1.5-1-2c-2.7-1.5-5.4-3.2-7.1-6c-0.3-0.5-0.8-0.9-1.3-1.3c-2.8-2.2-5.7-4.4-8.5-6.6
					c-2.3-1.8-3.2-1.3-5.1,0.7c-2.7,2.8-5.8,5.1-8.8,7.5c-1.7,1.3-3.5,2.4-5.2,3.6c-0.8,0.6-1.6,1.3-2.5,1.7
					c-1.7,0.8-3.2,1.8-3.6,3.9c-0.1,0.7-1.1,1.3-1.8,1.7c-1.8,1.1-3.6,2-5.5,3c-1.8,1-3.1,2.3-4,4.3c-1,2.2-2.9,3.8-5.4,4.7
					c0,1.3,0,2.8,0,4.3c-0.1,2.8-0.9,3.7-3.6,4.4c-0.8,0.2-1.9,1.2-2,1.9c-0.4,3.1-2.5,4.4-4.9,4.7c-2.8,0.3-5.7-0.1-8.5-0.4
					c-1.2-0.1-1.7-1-1.4-2.2c0.6-2.5,1.4-4.6,3.9-6.2c2.5-1.6,4.5-3.9,6.5-6.2c0.7-0.9,0.9-2.4,0.9-3.7c-0.1-2.1,0.3-3.9,2-5.1
					c1.9-1.4,2.8-3.1,2.5-5.5c-0.2-1.7,0.6-3,2.1-3.8c0.8-0.5,1.6-1,2.4-1.4c1.8-0.9,3.4-1.7,3.7-4.2c0.2-1.4,1.5-2.7,2.4-3.9
					c1.6-2,3.2-3.9,4.9-6c-1.3-1.5-0.8-2.9,0.2-4.4c1.7-2.4,3.4-4.8,4.9-7.3c0.5-0.8,0.5-2,0.3-2.8c-0.6-1.9,0.5-2.9,1.9-3.5
					c0.7-0.3,1.8,0.1,2.7,0.1c0.1,0.2,0.1,0.4,0.2,0.7c1.8-1.6,3.8-2.9,5.2-4.8c0.8-1.1,0.5-3,0.7-4.5c0.2-1.5,0.4-2.6-0.8-4.1
					c-1.1-1.4-1-3.8-1.3-5.7c-0.2-1.5-0.3-3-0.5-4.9c-2.3,0.4-4.4,1-6.5,1.2c-3,0.2-6.1,0.4-9.1,0.2c-2.9-0.2-4.6-5.7-2.7-8.3
					c1.4-1.9,2.5-4,4.2-5.6c2-1.9,4.3-3.3,6.6-4.8c1.6-1.1,3.2-2.3,4.9-3.1c3.2-1.4,6.4-2.8,9.8-3.8c2.7-0.8,2.8-0.6,5.1-3
					c-1.6-0.8-2.7-1.9-2.5-3.9c0-0.4-0.6-0.9-1-1.4c0.4-0.4,0.8-0.8,0.8-0.9c-0.3-1.2-0.6-2-0.5-2.8c0-0.4,1.1-0.6,1.8-0.7
					c2.3-3,4-6.7,8.2-7.9c2.1,0,4.3,0,6.4,0c0,0.1,0.1,0.1,0.1,0.2c7.5,2.9,9.1,5.3,9.1,13.5c0,1.8,0.6,3.8-1.9,4.6
					C107.1,27.3,107,28.3,106.9,28.9c-0.1-0.4-0.1-0.9-0.1-1.6c-4.7,1.8-8.9,0.3-13.3-1.1c0.2,2,1.3,3.1,2.7,4.1
					c3.1,2.1,5.1,0.2,7.1-1.9c0.8,1,1.4,1.7,2.1,2.5C106.1,30,106.5,29.5,106.9,28.9z"/>
				<path class="st0" d="M1006.1,132.3c0.8-5.8,1.6-11.2,2.4-16.7c0.9,0,1.7,0,2.5,0c18.2,0,36.5-0.1,54.7,0.1
					c4.2,0,4.3-1.8,3.7-5.3c-0.1-0.7-1.8-1.6-2.8-1.6c-4.9-0.2-9.8-0.1-14.7-0.1c-10.6,0-21.2,0-31.8,0c-9,0-16.4-7.3-16.5-16.3
					c0-3.4-0.1-6.9,0.3-10.2c1-7.5,8-13.6,15.6-13.7c21.8-0.1,43.6,0,65.4,0c0.4,0,0.8,0.1,1.4,0.1c-0.8,5.6-1.6,11-2.4,16.6
					c-1,0-1.7,0-2.5,0c-19.2,0-38.3,0-57.5,0c-3.2,0-5,2.8-3.3,5.5c0.5,0.7,1.9,1.2,2.9,1.3c6.1,0.1,12.2,0.1,18.3,0.1
					c9.2,0,18.4,0,27.6,0c8.9,0.1,15.7,5.9,16.8,14.7c0.4,3.8,0.4,7.8-0.2,11.6c-1.1,7.9-7.3,13.3-15.4,13.9
					c-0.7,0.1-1.5,0.1-2.2,0.1c-20,0-40,0-59.9,0C1007.8,132.3,1007.1,132.3,1006.1,132.3z"/>
				<path class="st0" d="M389.2,116.2c4.4-7,8.6-13.7,12.8-20.3c5.5-8.7,11-17.4,16.4-26.2c0.8-1.3,1.6-1.7,3-1.6
					c5.3,0.1,10.6,0,16,0c0,21.4,0,42.5,0,63.8c-5.4,0-10.8,0-16.4,0c0-11.3,0-22.7,0-34.1c-0.1,0-0.2-0.1-0.4-0.1
					c-0.4,0.6-0.8,1.1-1.2,1.7c-6.5,10.4-13.1,20.7-19.5,31.1c-0.7,1.2-1.5,1.6-2.9,1.6c-5.3-0.1-10.6-0.1-15.9,0
					c-1.5,0-2.3-0.5-3-1.7c-6.4-10.3-13-20.6-19.5-30.9c-0.3-0.5-0.7-1-1.3-2c0,11.7,0,23,0,34.4c-5.7,0-11.1,0-16.9,0
					c0-0.7,0-1.4,0-2.2c0-19.8,0-39.5,0-59.3c0-1.9,0.5-2.4,2.4-2.3c4.6,0.1,9.2,0.1,13.9,0c1.4,0,2.3,0.4,3.1,1.7
					c9.2,14.8,18.5,29.5,27.8,44.2C388.2,114.6,388.6,115.3,389.2,116.2z"/>
				<path class="st0" d="M250.3,68.1c0.8,0,1.5,0,2.2,0c21,0,42.1,0,63.1,0c10,0,17.3,7.2,17.3,17.2c0,9.9,0,19.7,0,29.6
					c0,9.6-6.5,16.9-16,17.1c-17.2,0.3-34.3,0.2-51.5-0.1c-8.2-0.1-15.2-7.3-15.3-15.5c-0.2-15.8-0.1-31.5,0-47.3
					C250.1,68.8,250.2,68.6,250.3,68.1z M267.1,84.9c-0.1,0.4-0.2,0.6-0.2,0.8c0,9,0,18.1,0,27.1c0,1.9,0.8,2.6,3,2.6
					c14.4,0,28.8,0,43.2,0c2.4,0,3.1-0.7,3.1-3.1c0-8,0-16.1,0-24.1c0-2.7-0.6-3.3-3.4-3.3c-9.6,0-19.3,0-28.9,0
					C278.3,84.9,272.8,84.9,267.1,84.9z"/>
				<path class="st0" d="M706.4,131.9c0-21.2,0-42.4,0-63.8c3,0,6,0.3,8.8-0.1c5.6-0.7,9.6,1.4,13.8,5c13.9,12.2,28.1,24,42.2,36
					c0.2,0.2,0.5,0.4,1.1,0.9c0-1,0-1.7,0-2.4c0-12.3,0.1-24.7-0.1-37c0-2.1,0.6-2.6,2.6-2.5c3.9,0.2,7.9,0,11.9,0
					c0.7,0,1.4,0,2.2,0c0,21.4,0,42.6,0,64c-3.8,0-7.6-0.3-11.3,0.1c-3.9,0.4-6.6-1.1-9.5-3.5c-14.4-12.4-28.9-24.7-43.4-37
					c-0.4-0.4-0.9-0.7-1.7-1.3c0,14.1,0,27.8,0,41.6C717.4,131.9,712,131.9,706.4,131.9z"/>
				<path class="st0" d="M881.3,132.1c-0.8,0-1.3,0-1.9,0c-21.2,0-42.4,0-63.6,0c-8.4,0-14.8-4.8-16.8-12.5c-0.3-1.3-0.5-2.6-0.5-4
					c0-15.1,0-30.2-0.1-45.3c0-1.6,0.3-2.2,2.1-2.2c26.3,0.1,52.7,0,79,0c0.5,0,0.9,0,1.7,0c-0.8,5.6-1.6,11.1-2.4,16.7
					c-21.2,0-42.3,0-63.7,0c0,0.8,0,1.4,0,2.1c0,8.4,0,16.8,0,25.1c0,2.8,0.6,3.4,3.5,3.4c19.3,0,38.6,0,57.9,0
					c1.9,0,2.5,0.5,2.7,2.4c0.4,4.2,1.2,8.3,1.8,12.5C881.2,130.8,881.2,131.3,881.3,132.1z"/>
				<path class="st0" d="M551,68.2c-0.8,5.7-1.6,11.1-2.4,16.6c-21.2,0-42.3,0-63.5,0c-0.1,0.7-0.1,1.3-0.1,1.9c0,8.4,0,16.8,0,25.1
					c0,3,0.5,3.5,3.5,3.5c19.3,0,38.6,0,57.9,0c1.8,0,2.4,0.5,2.6,2.3c0.5,4.7,1.3,9.4,2,14.4c-0.8,0-1.5,0.1-2.2,0.1
					c-21,0-42.1,0-63.1,0c-10.5,0-17.5-7.1-17.5-17.5c0-14.6,0-29.2,0-43.8c0-0.8,0-1.6,0-2.5C495.8,68.2,523.3,68.2,551,68.2z"/>
				<path class="st0" d="M679.9,131.9c0-5.5,0-10.9,0-16.5c-0.8,0-1.4,0-2.1,0c-12.1,0-24.1,0-36.2,0c-1.4,0-2.2,0.4-2.9,1.6
					c-2.9,4.6-5.8,9.1-8.8,13.7c-0.4,0.6-1.3,1.3-1.9,1.3c-6,0.1-11.9,0.1-17.9,0c-0.2,0-0.4-0.1-0.8-0.2c2.1-3.3,4.2-6.6,6.3-9.8
					c9.1-14.1,18.2-28.3,27.2-42.4c3.6-5.6,8.3-9.8,15.1-11c1.6-0.3,3.2-0.5,4.8-0.5c10.7,0,21.5,0,32.2,0c0.5,0,1,0.1,1.6,0.2
					c0,21.3,0,42.4,0,63.7C691,131.9,685.6,131.9,679.9,131.9z M650.3,98.7c10.2,0,19.7,0,29.4,0c0-4.6,0-9.2,0-13.8
					c-6.2,0-12.4,0-18.5,0.1c-0.8,0-2,0.6-2.4,1.2C656,90.2,653.3,94.3,650.3,98.7z"/>
				<path class="st0" d="M192.7,84.9c-11.2,0-22,0-33,0c0-5.6,0-11.1,0-16.6c27.5,0,55,0,82.5,0c0,5.5,0,11,0,16.6
					c-10.9,0-21.7,0-32.9,0c0,15.8,0,31.4,0,47.2c-5.7,0-11.1,0-16.7,0C192.7,116.3,192.7,100.7,192.7,84.9z"/>
				<path class="st0" d="M972,68.1c-2.6,3.1-4.8,5.8-7.1,8.5c-8.4,10-16.8,20-25.1,30.1c-0.6,0.7-0.9,1.8-0.9,2.7
					c-0.1,7.4,0,14.9,0,22.5c-5.5,0-10.9,0-16.5,0c0-0.6-0.1-1.3-0.1-2.1c0-6.6-0.1-13.1,0-19.7c0-1.8-0.6-3-1.7-4.3
					c-10.1-12.1-20.2-24.1-30.3-36.2c-0.3-0.4-0.6-0.7-1.2-1.5c1,0,1.6,0,2.2,0c5.8,0,11.7,0,17.5,0c1.4,0,2.3,0.4,3.2,1.5
					c5.7,6.9,11.5,13.8,17.3,20.7c0.4,0.5,0.8,0.9,1.2,1.4c6.3-7.5,12.5-14.9,18.7-22.3c0.5-0.6,1.4-1.2,2.1-1.2
					C958,68.1,964.7,68.1,972,68.1z"/>
				<path class="st0" d="M615.1,115.3c-3.1,5-6,9.5-8.6,14.1c-1.2,2.1-2.5,2.8-4.9,2.7c-13.4-0.1-26.8-0.1-40.2-0.1
					c-0.8,0-1.6,0-2.6,0c0-1,0-1.7,0-2.4c0-19.7,0-39.4,0-59.1c0-1.9,0.5-2.5,2.5-2.4c4.7,0.1,9.4,0,14.2,0c0,15.8,0,31.4,0,47.2
					C588.6,115.3,601.6,115.3,615.1,115.3z"/>
				<path class="st0" d="M974.7,87.3c0-3.6,0-7,0-10.3c0-0.4,0.2-0.8,0.4-1.1c2-2.4,3.9-4.7,5.9-7.1c0.3-0.3,0.8-0.6,1.2-0.6
					c6.9,0,13.8,0,21.1,0c-0.9,1.1-1.5,1.9-2.2,2.7c-4.2,5-8.4,10.1-12.6,15.1c-0.8,1-1.6,1.4-2.9,1.3
					C982.1,87.2,978.6,87.3,974.7,87.3z"/>
			</g>
			<g>
				<path class="st1" d="M10.6,123.9H8.7v-1.8h6v1.8h-1.9v5.1h-2.1V123.9z"/>
				<path class="st1" d="M15.4,122.1h3l1,4.1h0l1-4.1h3v6.9h-2v-4.4h0l-1.2,4.4h-1.6l-1.2-4.4h0v4.4h-2V122.1z"/>
			</g>
		</g>
		<g>
			<g>
				<polygon class="st2" points="736.5,298.7 803.2,298.7 839.6,187.5 767.1,187.5 				"/>
				<rect x="847.8" y="187.5" class="st2" width="71.9" height="111.2"/>
				<rect x="847.8" y="310.6" class="st2" width="71.9" height="111.2"/>
				<path class="st2" d="M963.5,310.6c36.9,26.7,100.2,21.8,100.2,46.7c0,11-11.9,17.1-29.8,17.1c-7,0-14.6-1.9-20.4-5.8
					c-6.1-3.9-10.4-10-11.9-18.4h-68.8c1.5,41.9,39.3,77.7,97.1,77.7c60.3,0,102.6-26.1,102.6-80c0-15.8-4.4-27.9-11.6-37.3H963.5z"
					/>
				<path class="st2" d="M1111.5,298.7c-35.9-29.9-105-24.8-105-50.6c0-8.4,7-13.2,22.8-13.2c7,0,13.4,1.3,18.6,4.2
					c5.2,2.9,9.1,7.8,10.3,15.8h68.2c-5.2-40.6-32.9-73.5-93.8-73.5c-54.8,0-95,24.8-95,74.2c0,19,5.8,32.8,14.9,43.1H1111.5z"/>
				<rect x="1145.8" y="310.6" class="st2" width="71.9" height="111.2"/>
				<rect x="1145.8" y="187.5" class="st2" width="71.9" height="111.2"/>
				<path class="st2" d="M1345.8,371.1c-32,0-41.6-32.2-42.8-60.6h-71.9c2.6,74.8,47.9,117.3,114.7,117.3
					c63.2,0,112.4-42.2,115-117.3H1389C1387.7,345.8,1375.2,371.1,1345.8,371.1z"/>
				<path class="st2" d="M1345.8,181.4c-67.3,0-113.5,46.1-114.7,117.3h71.9c0.8-28.5,11-60.6,42.3-60.6
					c30.4-0.9,42.9,30.1,43.8,60.6h71.8C1459.4,238.7,1422.5,181.4,1345.8,181.4z"/>
				<polygon class="st2" points="1617.9,187.5 1617.9,261.4 1619.9,298.7 1686.7,298.7 1686.7,187.5 				"/>
				<polygon class="st2" points="1475.1,310.6 1475.1,421.8 1543.9,421.8 1543.9,348.2 1542,310.6 				"/>
				<polygon class="st2" points="1611.1,298.7 1542.4,187.5 1475.1,187.5 1475.1,298.7 1524.2,298.7 1539.5,298.7 1541.5,298.7 
					1542.5,298.7 1544.5,298.7 1573.7,298.7 				"/>
				<path class="st2" d="M388,181.4h-33.7c0,0-16,58.4-32.4,117.3h32.4v-59.9h23c65.2,0,78.3,26.6,78.3,57.9c0,0.6,0,1.2,0,1.8
					l68.5,0.1c0.1-2,0.2-4,0.2-6C524.2,244.3,487.5,181.4,388,181.4z"/>
				<path class="st2" d="M378.8,359.5h-24.5v-48.9h-30.6h-0.7h-4c-12.6,45.4-26.7,95.3-31.6,111.2h96.9c82.5,0,131-56.7,138.7-111.2
					h-68.8C448.8,336.1,424.8,358,378.8,359.5z"/>
				<rect x="536.5" y="187.5" class="st2" width="71.9" height="111.2"/>
				<rect x="536.5" y="310.6" class="st2" width="71.9" height="111.2"/>
				<polygon class="st2" points="727.2,334.2 721,310.6 655.4,310.6 691.3,421.8 763.5,421.8 799.9,310.6 733.7,310.6 				"/>
				<polygon class="st2" points="688.9,187.5 616.4,187.5 652.3,298.7 718.4,298.7 				"/>
				<polygon class="st2" points="24.9,207.4 57.8,207.4 57.6,298.7 86.4,298.7 86.6,207.4 119.5,207.4 119.5,181.2 24.9,181.2 				
					"/>
				<polygon class="st2" points="197.5,223.7 159.7,223.7 159.7,181.2 130.9,181.2 130.7,298.7 159.5,298.7 159.7,249.9 
					197.5,249.9 197.3,298.7 226.1,298.7 226.3,181.2 197.5,181.2 				"/>
				<polygon class="st2" points="303.7,271.9 267.4,271.9 267.4,249.6 309.6,249.6 315.9,226 267.4,226 267.4,205.6 321.3,205.6 
					327.8,181.2 238.6,181.2 238.4,298.7 296.6,298.7 				"/>
			</g>
			<polygon class="st2" points="1624.4,310.6 1620.4,310.6 1618.4,310.6 1617.1,310.6 1615.1,310.6 1604,310.6 1550.6,310.6 
				1619.4,421.8 1686.7,421.8 1686.7,310.6 			"/>
		</g>
		<g>
			<path class="st2" d="M1723.4,198.2c0,2-0.5,3.8-1.5,5.5c-1,1.7-2.3,3-4,4c-1.7,1-3.5,1.5-5.5,1.5c-1.9,0-3.8-0.5-5.4-1.5
				c-1.7-1-3-2.3-4-4c-1-1.7-1.5-3.5-1.5-5.5c0-1.9,0.5-3.8,1.5-5.5c1-1.7,2.3-3,4-4c1.7-1,3.5-1.5,5.4-1.5c2,0,3.8,0.5,5.5,1.5
				c1.7,1,3,2.3,4,4C1722.9,194.4,1723.4,196.2,1723.4,198.2z M1721.3,198.2c0-2.4-0.9-4.5-2.6-6.2c-1.7-1.7-3.8-2.6-6.2-2.6
				c-2.4,0-4.5,0.9-6.2,2.6c-1.7,1.7-2.6,3.8-2.6,6.2c0,2.4,0.9,4.5,2.6,6.2c1.7,1.7,3.8,2.6,6.2,2.6c2.4,0,4.5-0.9,6.2-2.6
				C1720.4,202.7,1721.3,200.6,1721.3,198.2z M1707.5,192.3h5.2c1.5,0,2.5,0.3,3.2,0.9c0.7,0.6,1,1.4,1,2.4c0,0.8-0.3,1.5-0.8,2
				c-0.5,0.6-1.3,1-2.4,1.2c0.4,0.2,0.8,0.4,1,0.5c0.3,0.3,0.6,0.7,0.9,1.2c0,0,0.6,1.2,1.9,3.4h-3.4c-1.1-2.2-1.9-3.5-2.2-4
				c-0.4-0.4-0.8-0.7-1.1-0.7c-0.1,0-0.2,0-0.4,0v4.6h-2.9V192.3z M1710.4,197.3h1.3c0.8,0,1.4-0.1,1.8-0.4s0.5-0.6,0.5-1.1
				c0-0.4-0.2-0.8-0.5-1.1c-0.3-0.3-0.9-0.4-1.7-0.4h-1.4V197.3z"/>
		</g>
	</g>
</g>
</svg>
